<svg width="800" height="460" viewBox="0 0 800 460" fill="none" xmlns="http://www.w3.org/2000/svg">
<rect width="800" height="460" rx="28" fill="url(#bg)"/>
<g filter="url(#blur)">
<circle cx="110" cy="98" r="96" fill="#F59E0B" fill-opacity="0.3"/>
<circle cx="694" cy="116" r="92" fill="#EF4444" fill-opacity="0.24"/>
<circle cx="610" cy="356" r="124" fill="#84CC16" fill-opacity="0.18"/>
</g>
<rect x="36" y="38" width="210" height="150" rx="26" fill="#F59E0B"/>
<rect x="274" y="48" width="224" height="160" rx="28" fill="#FB923C"/>
<rect x="528" y="46" width="230" height="152" rx="28" fill="#F97316"/>
<rect x="98" y="234" width="222" height="150" rx="28" fill="#EA580C"/>
<rect x="356" y="240" width="210" height="144" rx="28" fill="#F59E0B"/>
<rect x="590" y="228" width="136" height="104" rx="24" fill="#FDBA74"/>
<g opacity="0.95">
<circle cx="162" cy="118" r="52" fill="#FFF7ED"/>
<circle cx="386" cy="126" r="56" fill="#FFF7ED"/>
<circle cx="642" cy="120" r="54" fill="#FFF7ED"/>
<circle cx="208" cy="306" r="56" fill="#FFF7ED"/>
<circle cx="462" cy="308" r="52" fill="#FFF7ED"/>
<circle cx="658" cy="282" r="36" fill="#FFF7ED"/>
</g>
<g opacity="0.9">
<circle cx="166" cy="118" r="34" fill="#FED7AA"/>
<circle cx="388" cy="126" r="36" fill="#FED7AA"/>
<circle cx="640" cy="120" r="35" fill="#FED7AA"/>
<circle cx="212" cy="308" r="36" fill="#FED7AA"/>
<circle cx="462" cy="308" r="33" fill="#FED7AA"/>
<circle cx="658" cy="282" r="22" fill="#FED7AA"/>
</g>
<g stroke="#166534" stroke-width="7" stroke-linecap="round">
<path d="M124 102C140 76 150 70 164 60"/>
<path d="M142 94C154 86 168 82 186 80"/>
<path d="M358 110C376 82 394 68 414 58"/>
<path d="M376 142C394 126 410 120 432 116"/>
<path d="M614 110C628 88 642 72 664 58"/>
<path d="M620 138C642 126 658 120 680 118"/>
<path d="M176 292C190 268 208 254 226 240"/>
<path d="M194 324C212 308 230 298 250 294"/>
<path d="M428 292C442 268 456 254 478 238"/>
<path d="M446 324C466 308 482 300 500 296"/>
<path d="M632 274C644 256 654 246 670 236"/>
<path d="M640 294C654 286 666 280 680 278"/>
</g>
<g fill="#7C2D12" fill-opacity="0.72">
<ellipse cx="112" cy="62" rx="32" ry="14" transform="rotate(-18 112 62)"/>
<ellipse cx="256" cy="286" rx="28" ry="12" transform="rotate(22 256 286)"/>
<ellipse cx="436" cy="90" rx="32" ry="14" transform="rotate(-16 436 90)"/>
<ellipse cx="560" cy="334" rx="26" ry="11" transform="rotate(24 560 334)"/>
<ellipse cx="714" cy="82" rx="28" ry="12" transform="rotate(-22 714 82)"/>
<ellipse cx="704" cy="320" rx="20" ry="9" transform="rotate(18 704 320)"/>
</g>
<defs>
<filter id="blur" x="-34" y="-46" width="872" height="572" filterUnits="userSpaceOnUse" color-interpolation-filters="sRGB">
<feFlood flood-opacity="0" result="BackgroundImageFix"/>
<feBlend mode="normal" in="SourceGraphic" in2="BackgroundImageFix" result="shape"/>
<feGaussianBlur stdDeviation="24" result="effect1_foregroundBlur_1_1"/>
</filter>
<linearGradient id="bg" x1="92" y1="42" x2="740" y2="430" gradientUnits="userSpaceOnUse">
<stop stop-color="#2B140A"/>
<stop offset="1" stop-color="#120D0A"/>
</linearGradient>
</defs>
</svg>
