<svg width="980" height="820" viewBox="0 0 980 820" fill="none" xmlns="http://www.w3.org/2000/svg">
<ellipse cx="490" cy="436" rx="318" ry="210" fill="#705237"/>
<ellipse cx="490" cy="425" rx="304" ry="196" fill="#B9A985"/>
<ellipse cx="490" cy="414" rx="274" ry="172" fill="#D7CBB0"/>
<ellipse cx="490" cy="406" rx="248" ry="150" fill="#EDE5D5"/>
<ellipse cx="490" cy="404" rx="188" ry="110" fill="#F8F4EA"/>
<ellipse cx="628" cy="378" rx="92" ry="56" fill="#C47A33"/>
<ellipse cx="628" cy="378" rx="76" ry="42" fill="#E7D7C0"/>
<path d="M402 448C442 408 494 368 566 352C596 346 622 346 650 352C618 414 600 470 584 512C564 564 536 620 482 626C432 632 380 594 364 544C350 500 360 474 402 448Z" fill="#7A3B1D"/>
<path d="M568 446C574 426 594 402 620 394C640 388 662 392 676 408C666 438 654 460 642 482C628 508 616 526 592 532C562 540 550 514 552 492C552 478 558 464 568 446Z" fill="#D8B786"/>
<ellipse cx="632" cy="392" rx="12" ry="16" fill="#6B582F"/>
<ellipse cx="660" cy="404" rx="10" ry="14" fill="#6B582F"/>
<ellipse cx="688" cy="420" rx="12" ry="16" fill="#6B582F"/>
<path d="M334 420C362 390 394 382 452 382L534 380L520 416L438 416C394 416 374 424 352 448L334 420Z" fill="#E58A3A"/>
<path d="M286 500C286 474 306 446 332 436L522 364C534 360 548 366 554 378C560 392 554 408 540 414L354 486C344 490 338 498 338 508V522C338 536 324 548 308 546C294 544 286 532 286 516V500Z" fill="#F6EBDD"/>
<path d="M324 566C324 544 342 522 364 516L552 462C566 458 580 466 586 478C592 492 584 508 570 514L382 568C368 572 360 582 360 596V606C360 620 348 632 332 632C316 632 304 620 304 604V590C304 580 310 572 324 566Z" fill="#F6EBDD"/>
<path d="M250 404C226 374 206 336 190 292C182 272 188 254 206 246C222 238 242 242 252 258C278 302 304 332 330 350C362 372 370 414 344 442C318 470 274 452 250 404Z" fill="#6D9D34"/>
<path d="M280 332C246 318 224 294 206 262C198 248 204 232 220 228C236 224 250 232 258 246C270 266 284 282 304 292C320 300 328 320 322 338C314 356 298 360 280 332Z" fill="#8AC14A"/>
<path d="M280 446C244 442 212 426 184 400C170 388 170 368 184 356C198 344 218 344 230 356C248 374 268 386 292 390C312 394 326 412 322 430C318 448 304 450 280 446Z" fill="#86C65D"/>
<path d="M326 358C344 314 372 276 420 244C436 232 456 236 466 252C476 268 472 288 454 298C422 316 402 342 390 374C384 394 364 404 346 398C326 392 320 378 326 358Z" fill="#5B8C2A"/>
<path d="M312 376C290 354 274 326 262 292C256 276 264 258 282 252C300 246 316 254 322 272C330 296 340 314 354 330C366 344 364 366 350 378C338 390 324 390 312 376Z" fill="#A3374A"/>
<path d="M718 476C706 458 714 434 734 424C754 414 780 392 806 350C818 330 842 324 860 336C878 348 882 372 868 392C830 448 786 484 756 496C738 504 724 492 718 476Z" fill="#4E8D28"/>
</svg>
